HIERARCHY
ROOT Hips
{
	OFFSET -0.001795 -0.223333 0.028219
	CHANNELS 6 Xposition Yposition Zposition Zrotation Yrotation Xrotation 
	JOINT LeftUpLeg
	{
		OFFSET 0.069520 -0.091406 -0.006815
		CHANNELS 3 Zrotation Yrotation Xrotation
		JOINT LeftLeg
		{
			OFFSET 0.034277 -0.375199 -0.004496
			CHANNELS 3 Zrotation Yrotation Xrotation
			JOINT LeftFoot
			{
				OFFSET -0.013596 -0.397961 -0.043693
				CHANNELS 3 Zrotation Yrotation Xrotation
				JOINT LeftToe
				{
					OFFSET 0.026358 -0.055791 0.119288
					CHANNELS 3 Zrotation Yrotation Xrotation
					End Site
					{
						OFFSET 0.000000 0.000000 0.000000
					}
				}
			}
		}
	}
	JOINT RightUpLeg
	{
		OFFSET -0.067670 -0.090522 -0.004320
		CHANNELS 3 Zrotation Yrotation Xrotation
		JOINT RightLeg
		{
			OFFSET -0.038290 -0.382569 -0.008850
			CHANNELS 3 Zrotation Yrotation Xrotation
			JOINT RightFoot
			{
				OFFSET 0.015774 -0.398415 -0.042312
				CHANNELS 3 Zrotation Yrotation Xrotation
				JOINT RightToe
				{
					OFFSET -0.025372 -0.048144 0.123348
					CHANNELS 3 Zrotation Yrotation Xrotation
					End Site
					{
						OFFSET 0.000000 0.000000 0.000000
					}
				}
			}
		}
	}
	JOINT Spine
	{
		OFFSET -0.002533 0.108963 -0.026696
		CHANNELS 3 Zrotation Yrotation Xrotation
		JOINT Spine1
		{
			OFFSET 0.005487 0.135180 0.001092
			CHANNELS 3 Zrotation Yrotation Xrotation
			JOINT Spine2
			{
				OFFSET 0.001457 0.052922 0.025425
				CHANNELS 3 Zrotation Yrotation Xrotation
				JOINT Neck
				{
					OFFSET -0.002778 0.213870 -0.042857
					CHANNELS 3 Zrotation Yrotation Xrotation
					JOINT Head
					{
						OFFSET 0.005152 0.064970 0.051349
						CHANNELS 3 Zrotation Yrotation Xrotation
						End Site
						{
							OFFSET 0.000000 0.000000 0.000000
						}
					}
				}
				JOINT LeftShoulder
				{
					OFFSET 0.078845 0.121749 -0.034090
					CHANNELS 3 Zrotation Yrotation Xrotation
					JOINT LeftArm
					{
						OFFSET 0.090977 0.030469 -0.008868
						CHANNELS 3 Zrotation Yrotation Xrotation
						JOINT LeftForeArm
						{
							OFFSET 0.259612 -0.012772 -0.027456
							CHANNELS 3 Zrotation Yrotation Xrotation
							JOINT LeftHand
							{
								OFFSET 0.249234 0.008986 -0.001171
								CHANNELS 3 Zrotation Yrotation Xrotation
								End Site
								{
									OFFSET 0.000000 0.000000 0.000000
								}
							}
						}
					}
				}
				JOINT RightShoulder
				{
					OFFSET -0.081759 0.118833 -0.038615
					CHANNELS 3 Zrotation Yrotation Xrotation
					JOINT RightArm
					{
						OFFSET -0.096012 0.032551 -0.009143
						CHANNELS 3 Zrotation Yrotation Xrotation
						JOINT RightForeArm
						{
							OFFSET -0.253742 -0.013329 -0.021401
							CHANNELS 3 Zrotation Yrotation Xrotation
							JOINT RightHand
							{
								OFFSET -0.255298 0.007772 -0.005559
								CHANNELS 3 Zrotation Yrotation Xrotation
								End Site
								{
									OFFSET 0.000000 0.000000 0.000000
								}
							}
						}
					}
				}
			}
		}
	}
}
MOTION
Frames: 16
Frame Time: 0.050000
0.000000 0.948463 0.000000 -0.054949 -2.283972 8.777058 5.804651 -0.381008 -5.174575 -0.058870 0.182890 -5.198512 1.987925 7.467238 11.602922 0.000000 0.000000 0.000000 -3.654754 0.568235 -5.670514 -2.102074 -0.077024 -4.918636 -1.265123 -7.568356 11.652729 0.000000 0.000000 0.000000 4.556161 0.339246 -6.189863 -2.712302 1.229316 -5.555202 -3.399976 4.678440 6.828269 4.589414 -1.826584 -11.836055 0.000000 0.000000 0.000000 -13.066421 -2.061062 -0.884387 -58.674260 -11.624441 -1.487181 -7.348917 -17.570760 1.687362 0.000000 0.000000 0.000000 11.771990 -4.715997 -2.671105 66.432366 7.153504 -2.132292 6.879355 19.245324 1.829024 0.000000 0.000000 0.000000 
0.000252 0.947682 0.000604 -0.248327 -3.068646 9.613496 5.528882 -0.377383 -4.901193 0.425689 0.203100 -6.462628 2.252371 7.750231 11.331329 0.000000 0.000000 0.000000 -3.774277 0.648738 -6.654974 -2.172079 -0.071499 -4.834321 -0.525623 -6.379213 11.998341 0.000000 0.000000 0.000000 5.518840 0.411897 -6.865348 -3.271614 1.440624 -5.936355 -4.124700 5.739830 6.633652 4.272968 -1.454092 -12.481975 0.000000 0.000000 0.000000 -13.745561 -1.605682 -1.321432 -58.200898 -11.732471 -1.390742 -7.301804 -16.579998 1.562106 0.000000 0.000000 0.000000 11.257710 -6.243115 -3.257990 68.121061 6.471603 -2.372983 6.980288 19.182846 1.861176 0.000000 0.000000 0.000000 
0.000435 0.947570 0.001004 0.040723 -2.948069 9.367587 5.325871 -0.383629 -5.035737 0.304784 0.162478 -5.273595 1.941057 7.035373 10.415800 0.000000 0.000000 0.000000 -4.014130 0.647066 -6.698991 -2.395580 -0.034682 -4.427690 -1.069451 -7.307545 11.721829 0.000000 0.000000 0.000000 5.224487 0.392335 -6.683417 -3.113502 1.371027 -6.556869 -4.603263 5.430939 6.731246 4.223461 -1.665636 -10.871118 0.000000 0.000000 0.000000 -13.418803 -1.643049 -1.226234 -58.106843 -11.273703 -1.645470 -7.462772 -15.245373 1.461603 0.000000 0.000000 0.000000 12.591806 -5.336448 -2.965793 66.582386 5.807746 -2.873623 7.052873 19.447186 1.897493 0.000000 0.000000 0.000000 
0.000529 0.947351 0.001428 0.136770 -2.971455 9.746121 5.396510 -0.393739 -5.171060 -0.030446 0.195098 -5.572285 1.763490 6.771464 10.587212 0.000000 0.000000 0.000000 -4.238729 0.673661 -7.049825 -2.248126 -0.051650 -4.565183 -1.144464 -7.566197 12.109156 0.000000 0.000000 0.000000 5.140904 0.411830 -6.990155 -3.534311 1.547553 -5.991137 -4.419602 4.750698 5.546943 3.530866 -1.365497 -9.951600 0.000000 0.000000 0.000000 -13.479121 -0.983871 -1.451746 -58.787163 -11.622734 -1.345954 -6.073549 -14.069843 1.189964 0.000000 0.000000 0.000000 11.431475 -5.570633 -3.082092 67.401451 5.493123 -2.949861 7.992503 19.456822 2.006802 0.000000 0.000000 0.000000 
0.000541 0.947547 0.001778 0.271513 -2.406015 9.487574 5.126250 -0.390793 -4.952397 0.007938 0.191586 -5.555593 1.565999 6.518079 10.651539 0.000000 0.000000 0.000000 -4.233219 0.648318 -6.771172 -2.675441 -0.028385 -4.619690 -1.178269 -7.564017 12.145610 0.000000 0.000000 0.000000 4.744157 0.383820 -6.778528 -3.173999 1.409594 -5.946556 -4.676334 4.139626 5.466380 3.277218 -1.146690 -10.438696 0.000000 0.000000 0.000000 -13.579040 -1.082573 -1.382316 -58.757234 -11.695979 -1.293872 -6.048518 -13.092985 1.107545 0.000000 0.000000 0.000000 11.547786 -5.573070 -3.125091 67.249732 5.355127 -3.050859 8.087468 19.436669 2.011590 0.000000 0.000000 0.000000 
0.000506 0.947733 0.002069 0.292149 -2.513681 9.710904 5.097067 -0.395125 -4.995220 0.014847 0.189230 -5.499577 1.773539 6.856632 10.655252 0.000000 0.000000 0.000000 -4.291387 0.657056 -6.860457 -2.701031 -0.047471 -4.942355 -0.939610 -7.270902 12.619089 0.000000 0.000000 0.000000 4.602662 0.401430 -7.046508 -3.235802 1.431370 -6.057676 -4.599228 3.989823 5.297106 3.136736 -1.083764 -10.310081 0.000000 0.000000 0.000000 -13.639522 -0.843433 -1.468961 -59.192951 -11.639290 -1.304211 -5.343943 -12.518134 0.986798 0.000000 0.000000 0.000000 11.124769 -5.619703 -3.132723 67.727304 5.310975 -3.073320 8.104544 19.225281 1.978216 0.000000 0.000000 0.000000 
0.000423 0.947979 0.002205 0.256954 -2.075455 9.742056 5.108695 -0.401508 -5.036137 0.014165 0.189158 -5.507088 1.665945 6.830226 11.089383 0.000000 0.000000 0.000000 -4.117589 0.648806 -6.765363 -2.918269 -0.049973 -5.190880 -0.892575 -7.195305 12.865015 0.000000 0.000000 0.000000 4.417603 0.400536 -7.138470 -3.052059 1.363210 -6.008830 -4.650162 3.550310 5.188607 3.199171 -1.071719 -10.850583 0.000000 0.000000 0.000000 -13.518163 -0.664506 -1.507812 -59.626453 -11.382682 -1.432885 -5.311279 -12.484968 0.983136 0.000000 0.000000 0.000000 11.235257 -5.600182 -3.159717 67.820351 5.193271 -3.157436 7.752172 19.281152 1.924626 0.000000 0.000000 0.000000 
0.000418 0.948318 0.002193 0.204442 -1.884759 9.796388 4.994462 -0.416601 -5.270865 0.141168 0.168691 -5.167536 1.723192 6.910592 10.943309 0.000000 0.000000 0.000000 -4.080285 0.647671 -6.754653 -2.872333 -0.051913 -5.192763 -0.844267 -7.019171 12.668378 0.000000 0.000000 0.000000 4.192870 0.395292 -7.172859 -2.921196 1.313397 -5.968977 -4.631404 3.486346 4.905555 3.181567 -1.105365 -10.440971 0.000000 0.000000 0.000000 -13.544558 -0.414344 -1.643783 -59.666689 -11.208723 -1.497091 -5.527077 -12.770294 1.027115 0.000000 0.000000 0.000000 11.131812 -5.613404 -3.152620 67.988043 5.184298 -3.126745 7.836647 19.091827 1.913382 0.000000 0.000000 0.000000 
0.000407 0.948593 0.002118 0.252956 -1.697858 9.769101 4.995161 -0.425076 -5.420752 0.015297 0.170363 -4.993055 1.702696 6.863626 10.809241 0.000000 0.000000 0.000000 -4.104864 0.641349 -6.684406 -2.856990 -0.060849 -5.330980 -0.817807 -6.910264 12.562282 0.000000 0.000000 0.000000 3.969391 0.380794 -7.071042 -2.878336 1.297172 -6.180354 -4.499247 3.356283 4.908392 3.237532 -1.104229 -10.782678 0.000000 0.000000 0.000000 -13.376660 -0.287099 -1.671059 -59.943193 -11.281487 -1.470792 -5.693795 -12.873569 1.054646 0.000000 0.000000 0.000000 11.189181 -5.473389 -3.099758 67.814049 5.490389 -2.949801 7.718424 18.992507 1.882445 0.000000 0.000000 0.000000 
0.000429 0.948671 0.002090 0.261577 -1.698572 9.716654 4.965511 -0.427671 -5.476344 -0.019746 0.166973 -4.832221 1.839736 7.053223 10.644075 0.000000 0.000000 0.000000 -4.146876 0.634724 -6.591754 -2.896390 -0.072257 -5.543145 -0.837368 -6.989336 12.706469 0.000000 0.000000 0.000000 3.833643 0.378995 -7.078245 -2.890081 1.302882 -6.071437 -4.380617 3.326266 4.733957 3.214787 -1.085232 -10.829965 0.000000 0.000000 0.000000 -13.312480 -0.052568 -1.767336 -59.951521 -11.404030 -1.392621 -6.280445 -13.150285 1.142677 0.000000 0.000000 0.000000 11.244386 -5.110934 -2.945055 67.571432 5.790053 -2.759875 7.702934 18.906895 1.866042 0.000000 0.000000 0.000000 
0.000424 0.948708 0.002165 0.196567 -1.922203 9.590962 5.007614 -0.413629 -5.266532 0.002048 0.168026 -4.899668 1.862507 7.035207 10.512401 0.000000 0.000000 0.000000 -4.131375 0.627911 -6.479103 -2.796219 -0.083732 -5.637418 -0.799071 -6.964317 12.753324 0.000000 0.000000 0.000000 3.837385 0.375200 -6.981190 -2.949305 1.324368 -6.051886 -4.220628 3.422883 4.599236 3.191067 -1.087125 -10.714109 0.000000 0.000000 0.000000 -13.375962 -0.089181 -1.752458 -59.893687 -11.436234 -1.359578 -6.613776 -13.157295 1.180825 0.000000 0.000000 0.000000 11.297505 -4.901687 -2.862264 67.450885 6.130860 -2.554216 7.846343 18.746865 1.865043 0.000000 0.000000 0.000000 
0.000448 0.948577 0.002346 0.170278 -1.958217 9.558894 5.117843 -0.409274 -5.217891 0.059073 0.164893 -4.917210 1.730994 6.793341 10.450581 0.000000 0.000000 0.000000 -4.069769 0.624454 -6.420265 -2.899287 -0.073688 -5.558117 -0.860026 -7.103952 12.821868 0.000000 0.000000 0.000000 3.813521 0.378485 -7.022640 -2.934144 1.318913 -5.917555 -3.995707 3.187332 4.356437 2.997650 -0.957398 -10.894798 0.000000 0.000000 0.000000 -13.525941 0.251986 -1.888841 -59.860126 -11.467123 -1.305664 -6.682645 -12.943749 1.172696 0.000000 0.000000 0.000000 11.219182 -4.739617 -2.820208 67.249636 6.277836 -2.470541 8.126375 18.715645 1.890282 0.000000 0.000000 0.000000 
0.000527 0.948675 0.002564 0.068542 -2.042813 9.462746 5.085334 -0.402603 -5.108215 0.391135 0.146419 -5.006720 1.550181 6.475888 10.439864 0.000000 0.000000 0.000000 -3.933938 0.625729 -6.436621 -3.050790 -0.053257 -5.355517 -0.826848 -7.094206 12.947941 0.000000 0.000000 0.000000 3.805969 0.378950 -7.002937 -2.739873 1.239592 -5.841437 -3.957857 3.201601 4.043186 3.049811 -1.030542 -10.569246 0.000000 0.000000 0.000000 -13.585198 0.388471 -1.963426 -59.566689 -11.163918 -1.425090 -7.170232 -12.651527 1.196494 0.000000 0.000000 0.000000 11.238843 -4.798888 -2.858555 67.115080 6.264580 -2.447663 8.296047 18.581690 1.894893 0.000000 0.000000 0.000000 
0.000705 0.948784 0.002713 0.011648 -2.013176 9.420604 5.038908 -0.403524 -5.118058 0.712962 0.126982 -5.043909 1.353506 6.123889 10.355810 0.000000 0.000000 0.000000 -3.870701 0.636162 -6.595997 -3.161838 -0.026919 -5.046672 -0.821686 -7.065859 12.891681 0.000000 0.000000 0.000000 3.794335 0.373628 -6.934320 -2.734915 1.237964 -5.856857 -3.733686 3.089830 3.841681 3.013003 -1.042274 -10.341327 0.000000 0.000000 0.000000 -13.598473 0.445794 -1.973144 -59.462054 -10.923641 -1.521513 -7.270926 -12.263929 1.170814 0.000000 0.000000 0.000000 11.061899 -4.715943 -2.821790 67.018175 6.042486 -2.566689 8.479085 18.933099 1.956958 0.000000 0.000000 0.000000 
0.000969 0.948854 0.002799 0.046532 -2.069074 9.407877 5.005656 -0.405310 -5.162941 0.868846 0.121558 -5.152788 1.263395 5.986850 10.437678 0.000000 0.000000 0.000000 -3.895208 0.639305 -6.641934 -3.314246 -0.013201 -4.962825 -0.847933 -7.170618 13.051741 0.000000 0.000000 0.000000 3.866820 0.378691 -6.972054 -2.642652 1.199061 -5.963197 -3.801705 3.223289 3.781941 3.213879 -1.168397 -10.330638 0.000000 0.000000 0.000000 -13.479859 0.501348 -2.002799 -59.318293 -10.656423 -1.657345 -7.372938 -12.038093 1.156930 0.000000 0.000000 0.000000 11.049887 -4.902207 -2.893102 66.789910 5.820840 -2.672028 8.626493 18.930770 1.981668 0.000000 0.000000 0.000000 
0.001227 0.948869 0.002821 0.158578 -2.101466 9.339282 4.887235 -0.400285 -5.043232 1.115003 0.117876 -5.418084 1.124723 5.794980 10.605370 0.000000 0.000000 0.000000 -3.956739 0.638897 -6.650072 -3.587902 0.002116 -4.960581 -0.866297 -7.274070 13.269465 0.000000 0.000000 0.000000 3.869549 0.370587 -6.854855 -2.580674 1.173057 -6.112324 -3.850616 3.439001 3.764290 3.256398 -1.190210 -10.258860 0.000000 0.000000 0.000000 -13.532096 0.454134 -2.023366 -58.968152 -10.399528 -1.782927 -7.498443 -11.761549 1.138928 0.000000 0.000000 0.000000 11.238139 -4.975680 -2.922098 66.552744 5.602435 -2.775533 8.608064 18.999848 1.994024 0.000000 0.000000 0.000000 
